<?xml version="1.0" standalone="no"?>
<!DOCTYPE svg PUBLIC "-//W3C//DTD SVG 20010904//EN"
 "http://www.w3.org/TR/2001/REC-SVG-20010904/DTD/svg10.dtd">
<svg version="1.0" xmlns="http://www.w3.org/2000/svg"
 width="854.000000pt" height="725.000000pt" viewBox="0 0 854.000000 725.000000"
 preserveAspectRatio="xMidYMid meet">

<g transform="translate(0.000000,725.000000) scale(0.100000,-0.100000)"
fill="#000000" stroke="none">
<path d="M3256 7112 l-78 -3 6 -59 7 -60 -64 0 c-48 0 -66 -4 -71 -15 -5 -13
1 -21 38 -52 9 -8 45 -13 91 -13 64 0 82 -4 112 -24 33 -23 37 -24 75 -10 28
9 45 11 58 4 10 -6 46 -10 79 -10 51 0 61 -3 66 -20 10 -31 -3 -57 -30 -64
-14 -4 -25 -11 -25 -17 0 -17 27 -39 49 -39 11 0 26 -7 35 -15 8 -8 23 -15 34
-15 11 0 22 7 26 15 4 11 21 15 61 15 37 0 62 5 71 15 21 21 47 19 74 -5 13
-11 27 -20 32 -20 5 0 6 -5 3 -10 -3 -6 1 -13 9 -16 10 -4 16 -18 16 -35 0
-28 -2 -29 -44 -29 -26 0 -51 6 -60 15 -33 34 -136 6 -136 -36 0 -11 -4 -19
-10 -19 -5 0 -10 -11 -10 -24 0 -14 -13 -38 -30 -54 -30 -31 -38 -52 -20 -52
15 0 12 -60 -4 -76 -18 -17 -42 -18 -50 -1 -5 10 -7 10 -12 0 -3 -7 -11 -13
-18 -13 -6 0 -23 -13 -36 -30 -24 -28 -29 -29 -107 -30 l-81 0 -7 -30 c-4 -16
-10 -30 -15 -30 -4 0 -11 -8 -14 -17 -3 -10 -13 -29 -21 -43 -11 -19 -15 -61
-15 -170 0 -97 -3 -140 -10 -130 -7 11 -10 6 -10 -22 0 -20 5 -38 11 -40 5 -2
13 -22 16 -46 3 -23 10 -42 14 -42 5 0 9 -7 9 -15 0 -8 9 -15 19 -15 10 0 21
7 25 15 6 15 60 21 90 9 17 -7 23 -64 7 -64 -5 0 -13 -9 -16 -20 -7 -22 29
-70 53 -70 9 0 12 -13 10 -42 -2 -24 -8 -43 -13 -43 -6 0 -21 -9 -33 -21 -17
-16 -21 -27 -16 -52 4 -18 10 -32 15 -32 5 0 9 -16 9 -35 0 -19 -4 -35 -10
-35 -5 0 -10 -6 -10 -13 0 -7 -13 -24 -30 -37 -16 -14 -29 -30 -30 -37 0 -6
-13 -25 -30 -41 -28 -29 -40 -66 -22 -74 4 -1 18 -20 31 -40 12 -21 27 -38 32
-38 5 0 9 -20 9 -45 0 -33 -4 -45 -15 -45 -8 0 -15 -4 -15 -8 0 -5 -7 -9 -15
-9 -8 0 -15 4 -15 9 0 4 -5 8 -11 8 -17 0 -39 27 -39 49 0 26 -28 28 -37 4 -4
-10 -13 -24 -20 -31 -7 -7 -13 -20 -13 -28 0 -8 -4 -14 -10 -14 -5 0 -10 -23
-10 -51 0 -27 4 -48 9 -45 4 3 11 -19 14 -49 7 -71 29 -95 94 -102 48 -5 51
-4 57 21 7 27 46 74 46 55 0 -5 12 3 26 18 26 29 29 30 65 32 11 0 18 5 15 10
-3 5 4 11 16 14 19 5 20 11 15 51 -7 51 1 106 15 106 5 0 16 7 24 15 9 8 31
15 50 15 34 0 34 -1 34 -44 0 -24 5 -46 10 -48 6 -2 11 -61 13 -143 l2 -140
-44 0 c-51 0 -60 -12 -31 -45 13 -15 20 -37 20 -62 0 -24 4 -37 10 -33 6 3 13
-1 16 -9 14 -36 52 -4 61 51 4 23 17 47 36 64 29 26 29 29 25 110 -2 54 -8 84
-16 87 -15 5 -16 49 -1 54 6 2 13 25 16 51 6 47 6 47 43 47 37 0 37 0 43 -47
3 -26 10 -49 16 -51 14 -5 15 -79 1 -87 -12 -7 -14 -52 -2 -57 4 -1 15 -18 25
-36 13 -26 17 -58 17 -133 0 -83 2 -99 16 -99 8 0 22 7 30 15 17 16 40 11 48
-12 7 -19 -3 -63 -15 -63 -19 0 -8 -58 15 -83 13 -14 21 -28 18 -31 -3 -3 0
-6 6 -6 7 0 12 -6 12 -14 0 -8 7 -16 15 -20 8 -3 15 -10 15 -16 0 -13 37 -50
50 -50 6 0 10 -5 10 -11 0 -16 26 -39 44 -39 9 0 16 5 16 10 0 6 7 10 15 10
12 0 15 15 15 74 0 53 4 77 15 86 12 10 15 38 15 131 0 66 4 119 9 119 5 0 11
14 15 31 4 20 10 28 17 23 7 -4 9 -3 6 3 -4 6 1 17 11 26 104 98 126 117 137
117 8 0 15 5 17 11 6 19 186 18 198 -1 7 -11 35 -15 122 -16 73 -1 114 -6 116
-13 2 -6 11 -11 20 -11 10 0 31 -7 47 -16 24 -13 63 -17 194 -18 122 -1 165
-4 168 -13 3 -8 22 -13 49 -13 39 0 44 3 44 23 0 21 -30 57 -48 57 -4 0 -15 9
-25 20 -11 13 -13 20 -4 20 9 0 9 3 -1 9 -11 6 -10 10 5 15 10 4 20 7 22 6 2
-1 7 3 10 9 4 6 55 14 113 17 l107 7 30 -30 c17 -18 46 -34 68 -38 21 -4 48
-18 62 -31 13 -13 29 -24 35 -25 6 0 26 -2 44 -2 18 -1 37 -8 42 -16 7 -12 47
-15 215 -15 144 -1 208 2 213 10 7 12 36 17 80 15 13 -1 20 -5 17 -11 -4 -6 6
-10 22 -11 67 -2 128 -11 133 -19 3 -5 25 -12 48 -16 23 -3 39 -10 37 -15 -3
-4 4 -10 15 -14 11 -3 20 -11 20 -16 0 -5 9 -9 19 -9 22 0 126 -99 136 -129 3
-12 11 -21 16 -21 5 0 9 -5 9 -11 0 -6 25 -36 55 -66 31 -31 54 -58 51 -60 -9
-10 127 -133 171 -155 26 -12 51 -27 54 -31 3 -5 25 -11 47 -14 23 -3 39 -9
37 -14 -3 -4 3 -10 13 -13 22 -7 82 -59 82 -71 0 -11 67 -75 79 -75 6 0 14 -6
18 -12 9 -15 86 -58 103 -58 6 0 27 -17 48 -39 21 -22 51 -42 70 -46 18 -3 30
-10 27 -15 -7 -11 61 -23 85 -15 11 4 20 11 20 16 0 5 7 9 15 9 10 0 15 11 15
35 l0 35 -55 0 c-30 0 -55 5 -55 10 0 6 -7 10 -15 10 -7 0 -18 7 -23 16 -5 8
-27 18 -50 21 -23 3 -39 9 -37 13 3 4 -11 11 -30 14 -19 4 -35 11 -35 16 0 4
-13 11 -30 15 -16 4 -30 11 -30 16 0 5 -8 9 -18 9 -49 0 -91 82 -57 110 19 16
124 17 134 2 3 -6 25 -15 49 -21 23 -7 42 -16 42 -21 0 -6 9 -10 20 -10 11 0
20 7 20 15 0 8 4 15 9 15 6 0 13 21 16 48 4 26 13 57 21 69 16 26 9 49 -23 79
-13 12 -23 33 -23 47 0 42 -10 57 -40 57 -16 0 -36 7 -44 16 -9 8 -32 18 -52
21 -20 3 -31 9 -24 13 6 4 -9 10 -34 12 -67 8 -102 51 -51 64 14 3 22 10 19
15 -3 5 6 9 20 9 16 0 40 16 69 45 25 25 49 45 54 45 4 0 21 7 37 15 30 16 56
23 89 24 9 1 17 8 17 17 0 8 4 13 8 10 11 -7 42 30 42 49 0 8 9 23 20 32 11
10 20 23 20 30 0 7 6 13 13 13 9 0 8 3 -2 9 -9 6 -15 36 -19 82 -3 47 -10 77
-18 82 -8 4 -14 21 -14 38 0 20 -10 39 -30 59 -16 16 -30 36 -30 45 0 8 -4 15
-9 15 -5 0 -12 11 -15 25 -4 14 -11 23 -17 19 -6 -3 -13 3 -16 15 -3 12 -9 21
-14 21 -4 0 -11 22 -15 50 -4 27 -10 48 -14 45 -4 -3 -10 4 -13 15 -3 11 -12
20 -20 20 -8 0 -17 7 -21 15 -3 8 -16 15 -29 15 -14 0 -30 7 -37 15 -7 8 -18
15 -24 15 -6 0 -20 12 -30 27 -11 14 -14 23 -8 19 8 -5 12 0 12 13 0 18 6 21
43 21 34 -1 47 -6 67 -30 21 -26 31 -30 77 -30 29 0 53 -4 53 -10 0 -5 6 -10
13 -10 14 0 47 -35 47 -49 0 -13 47 -41 70 -41 16 0 20 6 20 31 0 17 -7 37
-15 45 -8 9 -15 33 -15 55 l0 39 101 0 c91 0 104 2 125 23 13 12 24 31 24 43
0 25 -62 84 -88 84 -26 0 -59 31 -67 63 -4 15 -11 27 -15 27 -4 0 -10 23 -14
50 -4 28 -11 50 -16 50 -6 0 -10 6 -10 14 0 24 -29 46 -61 46 -16 0 -29 4 -29
9 0 5 -46 11 -103 13 -74 2 -108 7 -120 18 -9 8 -23 21 -31 28 -8 6 -42 12
-74 12 -51 0 -63 4 -88 27 -24 23 -41 28 -102 34 -41 3 -77 11 -80 17 -4 5
-24 13 -45 17 -20 4 -37 11 -37 16 0 16 -41 9 -62 -11 -12 -10 -25 -17 -30
-14 -4 3 -8 0 -8 -5 0 -6 -6 -11 -12 -11 -7 0 -24 -9 -38 -20 -14 -11 -37 -20
-52 -20 -16 0 -28 -4 -28 -10 0 -5 -18 -10 -40 -10 -22 0 -40 5 -40 10 0 6 -8
10 -18 10 -11 0 -40 20 -66 45 -46 43 -51 45 -106 45 -56 0 -60 2 -117 50 -7
5 -17 10 -22 10 -5 0 -39 29 -74 65 -36 36 -70 65 -76 65 -7 0 -9 5 -6 10 3 6
-1 10 -10 10 -8 0 -18 7 -21 15 -4 8 -13 15 -20 15 -8 0 -34 20 -58 45 -25 25
-49 45 -55 45 -7 0 -14 6 -17 14 -3 8 -19 18 -35 21 -16 4 -29 11 -29 16 0 6
-4 8 -9 4 -5 -3 -12 -1 -16 5 -3 5 -15 10 -26 10 -10 0 -19 5 -19 10 0 6 -11
10 -25 10 -16 0 -31 10 -42 28 -10 15 -23 31 -30 35 -7 4 -13 12 -13 18 0 5
-9 19 -20 31 -10 12 -17 25 -14 30 3 4 -24 8 -60 8 -75 0 -96 14 -96 64 0 39
35 82 74 92 14 3 23 10 20 15 -3 5 -2 9 3 9 12 -1 79 -39 69 -40 -6 0 1 -10
14 -22 25 -23 30 -24 203 -20 87 2 107 5 107 17 0 8 -9 15 -20 15 -11 0 -20 4
-20 8 0 5 -51 12 -112 16 -62 4 -114 11 -116 16 -2 6 -11 10 -21 10 -9 0 -26
7 -37 15 -12 9 -42 14 -81 15 -34 0 -74 5 -90 12 -34 14 -22 13 -165 22 -85 6
-118 12 -122 22 -3 8 -15 14 -26 14 -11 0 -20 4 -20 10 0 5 -21 9 -47 8 -57
-2 -153 12 -153 22 0 4 -48 7 -107 7 -114 0 -193 10 -193 22 0 5 -59 11 -131
13 -72 3 -134 10 -138 16 -3 5 -51 10 -106 11 -103 2 -251 15 -295 27 -14 3
-69 8 -122 11 -54 3 -98 9 -98 14 0 5 -52 9 -115 9 -70 0 -115 -4 -115 -10 0
-12 -77 -13 -82 -1 -3 10 -240 18 -372 13z m-139 -138 c-3 -3 -12 -4 -19 -1
-8 3 -5 6 6 6 11 1 17 -2 13 -5z"/>
<path d="M1900 6981 c0 -15 -78 -25 -172 -22 -52 1 -88 -2 -88 -7 0 -5 -15
-13 -34 -16 -19 -4 -36 -11 -38 -16 -2 -5 -63 -12 -137 -15 -154 -7 -154 -7
-162 -19 -4 -4 -44 -12 -90 -16 -106 -11 -187 -26 -203 -39 -6 -5 -58 -13
-114 -17 -56 -4 -102 -11 -102 -15 0 -5 -15 -9 -34 -9 -19 0 -41 -7 -50 -15
-8 -8 -25 -15 -38 -15 -13 0 -36 -7 -52 -15 -15 -8 -49 -15 -74 -15 -38 0 -50
-5 -78 -35 -19 -18 -34 -39 -34 -45 0 -6 -7 -13 -15 -16 -8 -3 -17 -15 -21
-26 -12 -40 -54 -68 -100 -68 -34 0 -44 -4 -49 -20 -10 -30 2 -40 48 -39 37 0
98 16 72 18 -10 1 23 22 63 41 13 5 43 10 68 10 24 0 44 5 44 10 0 6 5 10 11
10 6 0 22 9 36 20 19 15 41 20 84 20 33 0 59 4 59 9 0 5 9 13 21 16 11 4 39
25 60 47 31 32 48 41 84 46 25 2 45 9 45 13 0 5 14 9 30 9 17 0 30 -4 30 -9 0
-5 11 -12 25 -15 14 -4 25 -11 25 -16 0 -6 34 -10 80 -10 68 0 83 -3 97 -20
27 -32 83 -27 113 10 16 19 35 29 52 30 39 0 69 14 100 45 24 24 33 26 90 23
61 -3 62 -3 73 27 10 30 25 49 56 73 21 15 67 0 89 -29 12 -15 31 -21 85 -24
39 -3 110 -8 159 -11 56 -3 91 -2 95 5 4 5 23 11 43 13 29 1 38 7 43 25 3 13
3 28 0 33 -6 10 -88 0 -96 -12 -3 -6 -37 -10 -75 -11 -69 -2 -69 -2 -72 26 -3
22 1 30 17 34 12 3 21 10 21 15 0 5 5 6 10 3 6 -3 10 1 10 10 0 9 -4 14 -9 10
-5 -3 -12 -1 -16 5 -8 12 -85 13 -85 1z"/>
<path d="M2927 6723 c-10 -10 -8 -53 2 -53 5 0 13 -14 16 -32 9 -40 27 -58 59
-58 16 0 27 7 31 20 4 11 11 18 16 15 5 -4 9 -1 9 4 0 6 -4 11 -10 11 -5 0
-10 8 -10 18 0 10 -10 24 -22 32 -11 8 -28 23 -37 33 -16 17 -42 23 -54 10z"/>
<path d="M3237 6723 c-12 -11 -8 -19 28 -56 19 -20 35 -40 35 -46 0 -5 9 -13
20 -16 11 -3 20 -10 20 -15 0 -4 32 -10 72 -12 44 -2 73 -9 76 -16 4 -14 32
-16 32 -2 0 6 6 10 13 10 6 0 19 5 27 10 13 9 13 11 0 20 -8 5 -32 10 -53 10
-35 0 -44 4 -80 36 -7 6 -22 14 -34 18 -12 4 -24 13 -27 21 -3 10 -19 15 -45
15 -25 0 -41 5 -45 15 -6 15 -28 20 -39 8z"/>
<path d="M2446 6651 c-3 -5 -21 -12 -40 -15 -19 -4 -36 -11 -38 -16 -2 -5 -39
-10 -83 -11 -97 -2 -125 -21 -125 -81 0 -34 3 -38 24 -38 14 0 28 5 31 10 8
13 72 13 77 -1 4 -13 78 -24 110 -16 13 4 28 16 33 28 6 11 27 30 47 41 34 20
38 20 53 5 9 -10 23 -17 31 -17 7 0 16 -11 20 -25 7 -29 17 -31 44 -8 36 31
17 103 -26 103 -8 0 -12 5 -9 10 3 6 -3 10 -14 10 -11 0 -26 7 -35 15 -16 16
-91 21 -100 6z"/>
<path d="M2896 6495 c-3 -8 -13 -15 -21 -15 -19 0 -45 -23 -45 -39 0 -6 11
-13 25 -17 14 -3 25 -10 25 -15 0 -5 14 -9 30 -9 17 0 30 5 30 10 0 6 14 10
30 10 20 0 30 5 30 15 0 19 -31 55 -48 55 -7 0 -10 5 -7 10 3 6 -5 10 -18 10
-14 0 -27 -7 -31 -15z"/>
<path d="M1788 6461 c-10 -10 -18 -23 -18 -29 0 -7 -4 -12 -10 -12 -5 0 -12
-11 -16 -24 -3 -14 -12 -27 -20 -30 -8 -3 -14 -10 -14 -16 0 -6 -7 -18 -15
-26 -8 -9 -15 -24 -15 -35 0 -10 -4 -19 -9 -19 -5 0 -12 -12 -16 -27 -3 -15
-17 -37 -31 -50 -13 -12 -27 -36 -30 -53 -4 -16 -10 -30 -15 -30 -5 0 -9 -20
-9 -45 0 -32 6 -51 20 -65 24 -24 56 -26 64 -5 3 8 13 15 21 15 9 0 14 4 11 9
-6 8 30 25 47 22 5 -1 6 3 2 9 -3 5 -2 10 3 10 5 0 15 12 22 28 23 45 60 72
97 72 46 0 59 16 65 77 3 29 12 59 21 68 10 9 17 27 17 41 0 20 -5 24 -31 24
-30 0 -59 19 -59 39 0 6 5 11 10 11 15 0 12 29 -4 46 -20 19 -67 17 -88 -5z"/>
<path d="M2774 6235 c-4 -9 -19 -15 -39 -15 -41 0 -67 -9 -59 -21 3 -5 -4 -9
-15 -9 -12 0 -21 -4 -21 -8 0 -4 -13 -16 -30 -25 -25 -15 -30 -24 -30 -57 0
-21 -4 -40 -10 -42 -21 -7 -22 -62 -2 -86 11 -12 23 -22 28 -22 10 0 54 -50
54 -62 0 -4 7 -8 15 -8 8 0 15 -7 15 -15 0 -8 5 -15 10 -15 6 0 10 -14 10 -31
0 -28 36 -110 53 -117 10 -5 9 -32 -2 -32 -5 0 -13 -10 -17 -22 -4 -13 -14
-28 -22 -34 -27 -19 -11 -105 26 -145 18 -19 32 -40 32 -46 0 -7 5 -13 11 -13
13 0 49 -38 49 -52 0 -12 26 -38 38 -38 5 0 15 -7 22 -15 7 -8 20 -15 30 -15
24 0 30 37 30 190 l0 128 25 6 c30 8 65 36 65 52 0 7 5 14 12 16 9 3 13 41 13
133 1 91 4 130 13 133 14 4 17 82 3 82 -5 0 -12 12 -15 26 -4 14 -11 31 -17
37 -23 28 -45 57 -59 77 -42 62 -79 85 -95 60 -10 -16 -62 -12 -69 5 -3 8 -15
15 -26 15 -11 0 -23 -7 -26 -15z"/>
<path d="M1718 5928 c-21 -22 -38 -47 -38 -54 0 -17 43 -18 69 -2 15 9 22 8
35 -5 23 -22 20 -52 -9 -83 -19 -21 -22 -29 -12 -40 34 -37 38 -47 35 -72 -3
-23 -8 -27 -39 -30 -29 -2 -41 3 -70 32 -19 20 -40 36 -46 36 -7 0 -13 5 -13
10 0 6 -6 10 -14 10 -7 0 -19 7 -26 15 -7 8 -28 15 -47 15 -21 0 -36 6 -39 15
-4 8 -12 15 -20 15 -8 0 -14 8 -14 18 0 13 -2 14 -9 4 -6 -10 -10 -5 -14 17
-5 25 -12 31 -32 31 -20 0 -27 -6 -32 -30 -4 -22 -13 -32 -32 -37 -14 -3 -29
-11 -33 -16 -3 -6 -31 -12 -62 -15 -31 -2 -56 -8 -56 -13 0 -5 -11 -9 -25 -9
-13 0 -28 -7 -33 -16 -6 -10 -28 -18 -58 -21 -27 -3 -53 -12 -57 -19 -5 -8
-25 -14 -46 -14 -25 0 -41 -5 -45 -15 -3 -8 -16 -15 -30 -15 -13 0 -26 -7 -30
-15 -3 -9 -18 -15 -36 -15 -16 0 -30 -4 -30 -10 0 -5 -11 -12 -25 -16 -14 -3
-25 -10 -25 -15 0 -5 -7 -9 -15 -9 -9 0 -18 -6 -21 -14 -3 -8 -19 -18 -35 -21
-16 -4 -29 -11 -29 -16 0 -15 -67 -10 -80 6 -7 8 -17 15 -23 15 -5 0 -20 12
-34 26 -13 14 -31 24 -41 22 -22 -4 -28 -39 -8 -50 9 -5 16 -14 16 -19 0 -6 6
-16 12 -23 7 -8 20 -23 28 -35 8 -11 25 -21 37 -21 26 0 93 33 104 52 13 21
203 16 227 -5 10 -9 24 -17 30 -17 7 0 12 -4 12 -10 0 -5 7 -10 15 -10 8 0 15
-6 15 -14 0 -8 11 -17 25 -20 14 -4 25 -11 25 -16 0 -6 7 -10 15 -10 30 0 56
-36 57 -78 0 -22 -3 -45 -7 -52 -10 -17 -6 -187 5 -232 8 -29 7 -50 -4 -89 -9
-28 -13 -55 -10 -60 3 -5 1 -9 -4 -9 -5 0 -7 -11 -4 -25 5 -26 -15 -85 -28
-85 -4 0 -10 -14 -14 -31 -3 -18 -17 -42 -29 -53 -13 -12 -27 -34 -31 -49 -3
-15 -11 -27 -16 -27 -15 0 -12 -58 3 -62 9 -4 12 -42 12 -145 0 -119 -3 -142
-17 -157 -22 -22 -23 -50 -2 -71 10 -10 18 -38 21 -72 2 -30 10 -62 18 -70 8
-8 15 -22 15 -31 0 -15 2 -15 10 -2 8 13 10 13 10 -1 0 -18 74 -99 90 -99 5 0
10 -6 10 -14 0 -8 6 -16 12 -18 9 -3 13 -35 15 -104 1 -58 6 -100 13 -102 16
-6 12 -81 -5 -98 -8 -9 -15 -31 -15 -50 0 -20 -5 -34 -12 -34 -9 0 -10 -2 -2
-8 6 -4 14 -17 18 -29 4 -13 12 -23 17 -23 5 0 9 -7 9 -15 0 -9 7 -18 15 -21
8 -4 15 -12 15 -20 0 -8 9 -22 20 -31 11 -10 20 -27 20 -38 1 -24 43 -57 64
-49 8 3 16 15 18 27 4 32 72 37 100 8 10 -12 25 -21 33 -21 8 0 15 -5 15 -10
0 -6 6 -5 14 2 8 7 10 14 5 16 -23 9 -20 69 6 120 14 29 30 52 36 52 5 0 9 16
9 35 0 22 -5 35 -13 35 -14 0 -18 -4 -87 -77 -22 -24 -43 -43 -46 -43 -4 0
-15 9 -24 20 -17 20 -17 60 0 60 5 0 12 9 15 20 4 11 10 18 15 15 8 -5 26 33
22 48 -1 4 2 7 8 7 5 0 10 6 10 13 0 6 6 24 14 39 8 15 17 40 21 57 4 17 10
30 13 28 10 -5 42 30 34 37 -3 3 -1 6 5 6 14 0 94 80 80 81 -7 0 1 5 18 11 16
6 36 18 44 26 12 11 31 13 91 8 41 -3 77 -11 78 -16 5 -13 92 -13 92 1 0 5 4
8 9 4 5 -3 12 -1 16 4 3 6 30 9 59 7 47 -3 58 -8 87 -39 54 -58 59 -65 59 -85
0 -10 9 -27 20 -37 11 -10 20 -27 20 -37 0 -11 5 -16 10 -13 6 3 10 1 10 -5 0
-18 29 -23 45 -7 22 22 22 182 0 191 -8 3 -15 12 -15 19 0 8 -7 20 -15 27 -10
9 -15 31 -15 72 0 51 3 61 20 65 11 3 20 9 20 14 0 5 6 9 14 9 23 0 66 48 66
74 0 13 6 31 14 39 10 9 15 45 18 113 3 96 4 100 35 132 18 17 35 32 39 32 10
0 104 98 104 109 0 5 -5 11 -10 13 -14 4 -24 70 -16 102 3 15 13 26 21 26 8 0
15 4 15 9 0 5 12 12 27 16 15 3 30 10 33 15 3 5 28 12 55 16 28 3 52 10 55 14
3 4 18 10 33 14 36 9 66 36 72 65 3 16 -1 21 -16 21 -10 0 -19 -4 -19 -10 0
-5 -9 -10 -20 -10 -11 0 -20 4 -20 9 0 5 -11 12 -25 15 -15 4 -27 16 -31 30
-6 24 -33 36 -64 28 -8 -2 -24 -18 -35 -35 -14 -23 -28 -32 -48 -33 -24 -1
-27 2 -27 33 0 21 6 36 15 39 8 4 13 10 10 14 -3 5 4 11 15 15 11 3 20 11 20
16 0 14 107 11 113 -3 4 -10 6 -10 6 0 1 6 8 12 16 12 8 0 15 7 15 15 0 8 5
15 10 15 6 0 10 11 10 24 0 24 62 84 82 78 5 -1 7 2 4 7 -4 5 -2 12 4 16 5 3
10 24 10 46 0 36 -2 39 -28 39 -18 0 -37 10 -54 31 -15 16 -37 31 -49 32 -12
1 -24 9 -27 19 -2 10 -8 18 -13 18 -5 0 -9 11 -9 25 0 14 -7 28 -15 31 -8 4
-15 12 -15 20 0 19 -59 18 -66 -1 -13 -34 -73 -4 -89 44 -8 26 -34 33 -110 29
l-60 -3 -3 -73 c-3 -74 3 -91 41 -105 25 -9 22 -61 -5 -87 -12 -11 -25 -20
-30 -20 -4 0 -8 -36 -8 -80 0 -62 -3 -82 -15 -86 -8 -4 -15 -12 -15 -20 0 -8
-7 -14 -15 -14 -8 0 -15 -4 -15 -10 0 -17 -30 -11 -52 10 -18 17 -20 26 -14
74 6 51 4 57 -20 80 -15 13 -40 27 -57 30 -16 3 -40 17 -53 31 -13 14 -34 25
-46 25 -13 0 -31 9 -41 20 -19 23 -23 76 -6 82 6 2 14 28 17 58 5 53 7 57 97
147 51 51 95 93 99 93 12 0 46 35 46 47 0 7 4 13 9 13 5 0 12 11 15 24 3 14
16 28 29 32 12 4 25 11 29 17 3 6 28 11 55 11 37 1 53 -4 70 -21 12 -12 18
-25 13 -28 -6 -4 -10 -15 -10 -26 0 -10 -9 -27 -20 -36 -11 -10 -20 -22 -20
-28 0 -6 27 -25 61 -43 62 -33 129 -43 129 -19 0 20 -30 57 -46 57 -9 0 -14
11 -14 30 0 28 2 30 39 30 32 0 40 4 45 23 3 13 0 26 -8 33 -8 5 -18 22 -21
37 -4 15 -11 27 -16 27 -5 0 -9 8 -9 18 0 11 -10 31 -23 45 -19 23 -31 27 -74
27 -36 0 -53 4 -57 15 -8 22 -246 17 -246 -5 0 -22 12 -36 37 -44 12 -4 25
-17 29 -29 4 -12 12 -25 18 -29 8 -6 7 -8 -1 -8 -7 0 -13 -10 -13 -22 0 -22
-19 -63 -20 -43 0 6 -4 4 -9 -4 -12 -19 -62 -5 -68 19 -8 30 -41 35 -65 10
-18 -19 -19 -25 -8 -45 11 -20 10 -26 -3 -39 -17 -17 -37 -21 -37 -7 0 5 -21
12 -46 16 -84 12 -91 22 -49 67 24 26 35 66 15 53 -5 -3 -10 0 -10 7 0 8 -13
25 -29 39 -17 15 -33 38 -37 53 -3 14 -10 26 -14 26 -5 0 -12 9 -15 21 -10 29
-42 59 -62 58 -10 0 -35 -19 -55 -41z"/>
<path d="M8097 5783 c-11 -10 -8 -51 4 -55 6 -2 12 -31 13 -64 1 -53 5 -64 30
-87 16 -15 33 -27 38 -27 5 0 6 -5 3 -10 -4 -6 -3 -10 2 -9 14 2 53 -13 53
-21 0 -4 10 -10 23 -14 12 -3 37 -19 55 -36 18 -16 40 -30 48 -30 19 0 19 56
-1 64 -8 3 -15 12 -15 21 0 8 -4 15 -10 15 -5 0 -10 7 -10 15 0 8 -9 23 -20
32 -11 10 -20 26 -20 35 0 21 -135 158 -156 158 -8 0 -14 5 -14 10 0 11 -13
13 -23 3z"/>
<path d="M3090 5565 c0 -8 -4 -15 -10 -15 -5 0 -10 -7 -10 -15 0 -8 4 -15 9
-15 5 0 12 -14 16 -30 4 -17 10 -28 15 -25 5 3 11 -9 15 -26 7 -32 37 -69 55
-69 5 0 9 -3 9 -7 -5 -31 3 -83 11 -78 6 3 10 -3 10 -14 0 -12 7 -21 15 -21 8
0 15 -5 15 -10 0 -6 16 5 36 24 33 32 36 39 31 73 -4 21 -11 39 -17 41 -5 2
-13 21 -16 43 -4 21 -10 39 -15 39 -5 0 -9 7 -9 15 0 8 -7 15 -15 15 -9 0 -18
7 -21 15 -4 8 -12 15 -20 15 -8 0 -22 9 -31 20 -10 11 -23 20 -30 20 -7 0 -13
5 -13 10 0 6 -7 10 -15 10 -8 0 -15 -7 -15 -15z"/>
<path d="M2166 5504 c-11 -29 -7 -64 9 -64 24 0 55 32 55 57 0 19 -5 23 -29
23 -17 0 -31 -6 -35 -16z"/>
<path d="M8097 5450 c-14 -11 -30 -20 -36 -20 -6 0 -11 -4 -11 -10 0 -5 -5
-10 -11 -10 -16 0 -39 -26 -39 -44 0 -9 5 -16 10 -16 6 0 10 -6 10 -14 0 -25
18 -28 55 -10 27 13 35 22 35 43 0 15 9 34 20 44 23 19 27 57 6 57 -7 0 -25
-9 -39 -20z"/>
<path d="M3054 5342 c-32 -22 -25 -92 10 -92 35 1 56 24 56 64 0 33 -3 36 -27
36 -16 0 -33 -4 -39 -8z"/>
<path d="M1063 5120 c0 -30 2 -43 4 -27 2 15 2 39 0 55 -2 15 -4 2 -4 -28z"/>
<path d="M2871 5154 c0 -11 3 -14 6 -6 3 7 2 16 -1 19 -3 4 -6 -2 -5 -13z"/>
<path d="M2881 4701 c-13 -11 -28 -21 -33 -21 -18 0 -46 -39 -52 -73 -5 -25
-14 -38 -28 -43 -12 -4 -33 -20 -47 -35 -14 -16 -33 -29 -43 -29 -22 0 -143
-121 -162 -163 -8 -17 -16 -54 -19 -81 -3 -27 -9 -51 -15 -55 -5 -3 -11 -22
-13 -41 -2 -23 -13 -45 -31 -62 -16 -15 -28 -38 -28 -52 0 -13 -7 -31 -15 -40
-12 -12 -15 -46 -15 -175 0 -99 4 -161 10 -161 5 0 13 -12 16 -27 4 -16 11
-31 16 -34 5 -3 12 -25 15 -48 3 -22 10 -41 14 -41 5 0 9 -6 9 -13 0 -7 12
-18 28 -24 50 -22 102 -64 102 -84 0 -5 5 -7 10 -4 6 3 10 0 10 -8 0 -8 11
-18 25 -21 14 -4 25 -11 25 -16 0 -14 97 -13 102 1 2 6 25 13 51 16 46 5 49 4
93 -41 25 -27 58 -49 74 -53 17 -3 30 -9 30 -14 0 -5 11 -9 25 -9 14 0 33 -9
42 -20 10 -11 23 -20 31 -20 7 0 11 -4 8 -8 -3 -5 5 -20 17 -33 19 -20 22 -35
22 -107 0 -49 -4 -86 -11 -90 -6 -4 -14 -40 -17 -81 -3 -41 -10 -77 -16 -80
-5 -3 -12 -23 -16 -44 -4 -20 -12 -37 -19 -37 -8 0 -8 -2 0 -8 6 -4 15 -22 19
-39 3 -18 11 -33 15 -33 5 0 12 -16 16 -35 3 -19 11 -35 16 -35 12 0 5 -115
-11 -185 -16 -71 -43 -139 -58 -148 -7 -4 -13 -15 -13 -23 0 -8 -4 -13 -9 -10
-5 3 -11 -11 -13 -32 -4 -27 -17 -49 -46 -78 l-40 -39 -4 -143 c-2 -93 -7
-145 -14 -150 -7 -4 -15 -25 -18 -47 -4 -22 -11 -41 -16 -43 -14 -5 -12 -80 1
-84 15 -5 17 -87 2 -96 -15 -9 -29 -69 -27 -112 2 -19 -3 -38 -9 -42 -8 -5
-12 -38 -12 -91 0 -65 4 -87 17 -100 18 -19 48 -23 48 -7 0 14 87 13 92 -1 2
-6 26 -13 53 -16 28 -3 53 -11 57 -17 9 -13 164 -12 181 2 7 6 23 12 37 14 22
3 25 8 28 51 2 26 7 47 11 47 5 0 11 18 15 40 3 22 10 40 15 40 5 0 12 13 16
29 3 16 13 32 21 35 8 3 14 12 14 21 0 8 7 15 16 15 8 0 12 5 9 10 -3 6 1 10
10 10 9 0 19 9 22 20 3 11 9 20 14 20 15 0 48 33 43 42 -3 4 2 11 10 14 9 3
13 10 11 15 -3 4 3 14 15 21 11 7 20 17 20 22 0 13 61 66 77 66 7 0 13 5 13
10 0 6 9 10 19 10 11 0 26 6 33 13 7 8 30 16 51 20 20 3 44 13 53 21 8 9 20
16 25 16 5 0 9 6 9 14 0 8 4 16 9 18 6 2 12 88 16 192 3 104 9 194 14 200 4 6
11 24 15 39 4 15 11 25 16 22 6 -3 10 1 10 9 0 9 5 16 12 16 6 0 8 3 5 6 -3 4
4 15 18 25 13 11 27 34 31 51 11 54 70 128 100 128 8 0 14 4 14 9 0 5 27 14
60 19 45 8 68 19 90 41 17 16 30 34 30 41 0 6 7 13 15 16 8 3 17 15 21 26 3
11 8 17 11 14 7 -7 53 45 53 60 0 8 5 14 10 14 6 0 10 5 10 11 0 7 23 34 50
61 28 27 50 56 50 64 0 7 5 14 10 14 6 0 10 9 10 20 0 15 -7 20 -29 20 -45 0
-91 -12 -85 -21 3 -5 -13 -9 -36 -9 -25 0 -39 4 -35 10 4 6 -10 10 -34 10 -23
0 -41 -4 -41 -10 0 -5 -7 -10 -16 -10 -18 0 -44 23 -44 40 0 6 -7 13 -15 16
-8 4 -13 10 -10 14 3 5 -3 11 -14 15 -35 11 -91 72 -91 100 0 15 -4 24 -10 20
-17 -11 -12 114 5 131 13 13 15 55 15 255 0 195 3 243 14 255 17 16 46 19 46
4 0 -5 7 -10 15 -10 8 0 15 -9 15 -20 0 -11 4 -20 9 -20 5 0 12 -61 16 -136 4
-83 13 -146 21 -162 8 -15 14 -33 14 -39 0 -7 5 -13 10 -13 6 0 10 -11 10 -24
0 -14 7 -31 15 -40 17 -17 21 -126 5 -126 -5 0 -10 -13 -10 -30 0 -16 4 -30 9
-30 5 0 12 -12 15 -26 9 -33 27 -51 60 -60 14 -3 26 -10 26 -14 0 -16 54 -22
65 -7 5 7 23 17 39 21 16 4 43 18 61 32 34 25 61 31 67 13 2 -5 22 -13 46 -16
45 -6 92 15 92 42 0 8 4 15 9 15 5 0 12 12 15 26 4 15 12 32 19 40 7 7 18 20
25 28 17 21 20 108 4 114 -6 2 -12 8 -12 13 0 24 -46 79 -67 79 -13 0 -23 -4
-23 -10 0 -30 -53 12 -65 52 -4 12 -18 32 -30 44 -16 15 -23 37 -28 85 -4 35
-12 66 -17 67 -6 2 -10 21 -10 43 0 37 1 39 21 28 12 -6 26 -24 32 -40 6 -16
17 -29 25 -29 7 0 10 -5 7 -10 -3 -6 0 -13 9 -16 8 -3 18 -19 21 -35 4 -16 10
-29 15 -29 4 0 11 -10 14 -22 3 -13 17 -31 31 -41 23 -16 27 -17 41 -3 8 9 11
16 5 16 -6 0 -11 17 -11 39 0 22 -6 44 -15 51 -8 7 -15 20 -15 29 0 9 -11 26
-24 38 -16 16 -22 30 -18 48 2 14 0 31 -6 38 -6 6 -13 29 -17 50 -4 20 -11 37
-15 37 -4 0 -10 18 -14 40 -3 22 -10 40 -15 40 -5 0 -12 11 -15 25 -7 29 -41
67 -51 57 -3 -3 -8 4 -12 16 -3 12 -9 20 -13 17 -4 -3 -11 11 -14 30 -4 19
-11 35 -16 35 -6 0 -10 6 -10 13 0 12 -9 26 -50 74 -5 7 -10 16 -10 21 0 5
-12 18 -26 28 -14 10 -31 24 -38 30 -19 17 -46 24 -72 18 -22 -6 -24 -11 -24
-73 -1 -73 -12 -96 -52 -106 -15 -4 -29 -13 -32 -21 -3 -8 -12 -14 -21 -14 -8
0 -15 -5 -15 -11 0 -6 -7 -17 -15 -25 -10 -10 -15 -35 -15 -75 0 -54 -2 -59
-25 -65 -14 -3 -25 -11 -25 -16 0 -5 -7 -3 -15 6 -10 9 -15 34 -15 70 0 35 -5
58 -13 63 -8 4 -16 16 -20 26 -4 9 -19 23 -34 30 -33 14 -63 38 -63 50 0 11
-26 37 -37 37 -10 0 -43 37 -43 48 0 4 -9 15 -20 25 -11 9 -20 23 -20 31 0 7
-9 16 -20 19 -24 6 -60 -2 -60 -14 0 -5 -18 -9 -40 -9 -32 0 -46 7 -74 35 -19
18 -37 42 -40 52 -3 10 -19 27 -36 36 -16 10 -30 22 -30 27 0 15 -67 78 -90
85 -14 4 -20 15 -20 36 0 16 5 29 10 29 14 0 12 49 -2 63 -7 7 -37 11 -68 10
-64 -2 -140 11 -149 25 -3 5 -17 13 -30 17 -13 4 -34 17 -45 30 -12 12 -32 26
-46 30 -14 4 -28 12 -31 17 -3 5 -48 12 -100 15 -86 5 -96 3 -118 -16z"/>
<path d="M8108 4540 c-9 -10 -19 -27 -23 -39 -3 -12 -11 -21 -16 -21 -5 0 -9
-6 -9 -13 0 -27 -39 -47 -94 -47 -73 0 -86 -6 -86 -41 0 -28 2 -29 49 -29 62
0 112 10 105 21 -3 5 2 9 11 9 23 0 125 106 125 130 0 22 -22 51 -37 49 -4 0
-15 -9 -25 -19z"/>
<path d="M8027 4293 c-4 -3 -7 -17 -7 -31 0 -15 -15 -39 -40 -63 l-40 -39 0
-80 c0 -44 4 -80 9 -80 5 0 13 -9 16 -20 3 -11 12 -20 18 -20 7 0 19 -10 27
-21 8 -12 21 -27 28 -35 6 -7 12 -17 12 -23 0 -6 5 -11 11 -11 5 0 8 -4 5 -9
-3 -5 10 -12 30 -16 28 -5 40 -2 55 12 35 34 48 43 68 43 11 0 26 6 33 13 7 7
21 16 31 20 21 8 22 30 2 51 -8 8 -15 18 -15 23 0 11 -37 43 -50 43 -6 0 -13
13 -16 29 -4 17 -12 32 -20 35 -8 3 -14 14 -14 24 0 25 -30 85 -47 95 -7 4
-13 15 -13 23 0 8 -4 13 -9 10 -5 -3 -11 3 -14 14 -5 20 -45 28 -60 13z"/>
<path d="M7970 3771 c0 -5 -13 -12 -30 -16 -23 -5 -30 -12 -30 -31 0 -14 4
-23 9 -19 5 3 12 -4 16 -15 4 -13 15 -20 31 -20 22 0 24 3 24 55 0 30 -4 55
-10 55 -5 0 -10 -4 -10 -9z"/>
<path d="M7520 3722 c-49 -8 -55 -52 -7 -52 17 0 46 -9 62 -20 17 -11 38 -20
48 -20 9 0 17 -4 17 -10 0 -5 8 -10 18 -10 10 0 35 -9 57 -20 79 -40 150 -14
130 49 -4 13 -18 20 -47 24 -22 3 -44 10 -48 16 -3 6 -42 14 -86 17 -43 4 -82
12 -86 17 -7 12 -23 15 -58 9z"/>
<path d="M1653 3712 c1 -5 -13 -23 -30 -41 -18 -18 -33 -37 -33 -42 0 -6 -4
-7 -10 -4 -17 11 -11 -15 10 -37 16 -18 26 -20 72 -15 29 4 54 11 56 17 2 5 9
10 15 10 7 0 29 9 50 20 20 11 44 20 53 20 8 0 12 5 9 10 -3 6 -1 10 4 10 6 0
11 7 11 15 0 9 -9 15 -22 15 -13 0 -36 7 -52 15 -29 16 -138 21 -133 7z"/>
<path d="M8228 3692 c-10 -2 -18 -7 -18 -12 0 -5 -16 -12 -35 -16 -19 -3 -35
-9 -35 -13 0 -3 -24 -17 -52 -31 -66 -30 -65 -29 -48 -40 25 -16 137 -12 154
5 8 8 20 15 26 15 6 0 13 7 16 15 3 8 15 17 26 21 24 7 58 40 58 54 0 10 -50
11 -92 2z"/>
<path d="M1873 3573 c-13 -2 -56 -37 -97 -76 -97 -94 -101 -97 -129 -97 -15 0
-41 -16 -66 -40 l-41 -40 0 -79 c0 -63 -4 -83 -20 -104 -11 -14 -20 -30 -20
-36 0 -6 -4 -11 -10 -11 -5 0 -10 -11 -10 -25 0 -14 -7 -28 -15 -31 -8 -4 -15
-15 -15 -25 0 -11 -10 -27 -22 -37 -66 -52 -80 -72 -74 -104 3 -17 13 -36 22
-43 13 -9 16 -30 16 -108 0 -53 3 -97 8 -97 5 0 11 -13 15 -30 4 -16 10 -30
15 -30 4 0 10 -9 13 -21 3 -12 10 -18 16 -15 5 3 12 -7 16 -24 4 -17 10 -28
15 -25 4 3 10 -5 13 -16 3 -12 10 -18 16 -15 6 4 13 -4 17 -18 3 -13 12 -27
20 -30 8 -3 14 -14 14 -24 0 -11 7 -25 15 -32 8 -7 15 -18 15 -26 0 -16 55
-74 70 -74 5 0 10 -4 10 -9 0 -5 43 -12 95 -16 52 -4 95 -11 95 -16 0 -5 7 -9
15 -9 8 0 23 -9 32 -20 10 -11 23 -20 30 -20 7 0 13 -7 13 -16 0 -8 4 -13 9
-10 5 4 12 -7 16 -23 3 -16 13 -32 21 -35 8 -3 14 -12 14 -20 0 -7 7 -16 15
-20 9 -3 15 -18 15 -40 0 -18 6 -36 13 -39 7 -2 14 -18 15 -35 1 -16 9 -43 17
-59 8 -15 15 -34 15 -40 0 -7 4 -13 9 -13 5 0 12 -13 16 -29 3 -16 13 -32 21
-35 8 -3 14 -12 14 -21 0 -8 5 -15 10 -15 6 0 10 -10 10 -23 0 -12 6 -32 14
-43 9 -13 15 -56 18 -131 3 -107 4 -112 31 -137 15 -14 30 -39 33 -56 4 -16
10 -30 15 -30 5 0 9 -13 9 -30 0 -33 39 -130 52 -130 4 0 8 -11 8 -24 0 -14 6
-31 14 -38 7 -8 17 -29 21 -46 3 -18 10 -32 15 -32 5 0 11 -9 15 -20 3 -11 24
-39 46 -62 22 -24 42 -53 45 -65 3 -12 12 -24 20 -27 8 -3 14 -10 14 -16 0
-10 23 -41 47 -64 27 -25 48 -41 53 -41 4 0 17 -12 31 -26 13 -14 35 -30 49
-34 14 -4 28 -12 31 -17 8 -13 84 -22 106 -13 10 5 22 7 28 6 5 -2 7 1 3 5 -9
9 45 44 68 44 22 0 28 27 11 45 -12 11 -37 15 -98 15 -81 0 -82 0 -117 37 -31
31 -37 44 -40 94 -2 32 -8 56 -13 53 -5 -3 -9 1 -9 8 0 8 -13 25 -29 39 -26
23 -29 32 -33 103 -3 60 -7 80 -21 87 -25 15 -24 94 3 116 15 13 20 30 20 65
0 43 4 52 40 87 43 42 47 56 25 85 -25 34 -18 72 20 109 19 19 35 39 35 46 0
6 4 11 8 11 5 0 12 53 15 117 4 64 10 119 15 122 5 3 12 27 16 54 4 26 11 45
16 42 4 -3 11 15 14 40 4 25 11 45 15 45 5 0 11 18 15 40 3 22 10 40 16 40 5
0 12 20 16 45 3 25 10 45 15 45 5 0 9 7 9 15 0 7 7 18 16 23 10 6 17 30 21 78
3 38 9 71 13 74 14 9 27 74 23 115 -6 64 -13 86 -23 80 -6 -3 -10 5 -10 20 0
14 -7 28 -15 31 -18 7 -21 100 -4 106 6 2 13 39 15 87 3 58 9 87 20 99 13 12
15 30 12 83 -5 64 -7 70 -49 112 -43 43 -45 44 -128 50 -47 4 -87 10 -90 15
-3 4 -28 13 -56 19 -27 6 -60 14 -72 18 -18 6 -23 2 -29 -19 -3 -14 -10 -24
-14 -21 -5 3 -11 -4 -15 -15 -7 -21 -40 -34 -72 -28 -14 2 -19 14 -21 58 -2
35 -9 58 -18 63 -8 4 -14 13 -14 18 0 6 -29 39 -64 75 -54 54 -69 64 -99 64
-55 0 -101 -11 -85 -21 8 -6 0 -9 -24 -9 -34 0 -99 26 -106 43 -2 4 -8 7 -14
7 -6 0 -30 20 -53 45 -43 44 -71 56 -112 48z"/>
<path d="M280 3395 c0 -36 4 -65 8 -65 5 0 14 -11 20 -25 10 -21 18 -25 58
-25 40 0 52 -5 80 -32 55 -55 61 -58 108 -58 25 0 48 -5 51 -10 4 -6 10 -8 15
-5 4 3 10 -2 14 -10 3 -8 12 -15 21 -15 8 0 15 -4 15 -9 0 -14 40 -21 88 -14
53 7 71 37 41 66 -19 18 -55 24 -45 8 4 -5 -8 -13 -26 -16 -18 -4 -37 -13 -41
-19 -6 -8 -10 -8 -14 2 -2 6 -10 12 -17 12 -6 0 -19 9 -29 20 -9 11 -24 20
-33 20 -22 0 -69 50 -78 83 -10 41 -37 67 -68 67 -26 0 -67 28 -107 73 -8 9
-26 17 -38 17 -22 0 -23 -4 -23 -65z"/>
<path d="M1097 3188 c-13 -17 -15 -31 -10 -58 8 -41 8 -62 -2 -112 -6 -32 -5
-39 11 -45 11 -4 24 -11 29 -15 6 -5 21 -17 34 -28 30 -25 51 -19 96 25 44 44
56 106 26 132 -12 9 -21 23 -21 31 0 7 -4 10 -10 7 -5 -3 -10 1 -10 9 0 9 -6
16 -13 16 -7 0 -24 13 -37 30 -30 35 -68 39 -93 8z"/>
<path d="M4588 2678 c-60 -60 -111 -120 -114 -134 -3 -13 -10 -24 -15 -24 -15
0 -10 -60 6 -76 27 -28 16 -52 -59 -127 -41 -41 -77 -84 -81 -97 -9 -27 -82
-100 -101 -100 -8 0 -14 -4 -14 -10 0 -5 -5 -10 -11 -10 -19 0 -108 -96 -115
-124 -3 -14 -10 -26 -15 -26 -5 0 -9 -13 -9 -29 0 -52 62 -53 108 -3 17 18 37
26 72 30 62 6 88 -1 122 -32 14 -14 38 -28 52 -32 14 -3 26 -10 26 -15 0 -5
36 -9 79 -9 53 0 84 -4 93 -13 8 -9 52 -16 113 -21 54 -4 102 -11 105 -16 10
-17 119 -17 129 -1 12 18 -4 63 -34 95 -13 14 -27 36 -31 48 -3 13 -10 25 -15
28 -13 9 -16 290 -2 298 6 4 15 21 19 37 4 16 12 35 18 42 29 32 36 43 36 51
0 5 7 15 15 22 8 7 15 21 15 32 0 10 7 21 15 24 8 3 17 21 21 40 3 19 10 32
14 29 4 -3 11 7 15 22 3 16 10 30 15 33 8 5 13 51 11 98 -1 21 -5 22 -75 22
-82 0 -138 9 -131 20 3 4 -15 11 -40 14 -25 4 -45 11 -45 17 0 5 -19 9 -42 8
-41 -1 -48 -7 -150 -111z"/>
<path d="M4248 2416 c-8 -7 -24 -17 -36 -20 -12 -4 -20 -12 -17 -17 4 -5 -2
-9 -13 -9 -23 0 -72 -40 -72 -60 -1 -8 -19 -27 -40 -42 -38 -27 -40 -30 -40
-82 0 -30 5 -58 10 -61 17 -10 70 5 70 21 0 8 7 14 15 14 8 0 15 7 15 15 0 8
5 15 10 15 10 0 50 36 50 45 0 3 13 18 29 34 16 15 32 38 36 50 3 12 11 19 16
16 5 -4 9 1 9 9 0 8 7 21 15 30 13 13 13 19 3 36 -15 23 -41 26 -60 6z"/>
<path d="M5570 2024 c0 -6 -16 -14 -35 -17 -26 -4 -52 -23 -103 -74 -37 -37
-84 -79 -104 -93 -20 -13 -35 -28 -32 -31 2 -4 -5 -10 -16 -14 -11 -4 -18 -10
-15 -15 3 -5 -3 -11 -12 -14 -10 -3 -27 -19 -38 -36 -11 -16 -25 -30 -31 -30
-13 0 -24 -32 -24 -74 0 -22 12 -40 44 -72 24 -23 47 -51 51 -63 3 -11 10 -21
15 -21 5 0 12 -16 16 -35 3 -19 10 -33 14 -30 8 5 20 -67 20 -121 0 -19 5 -34
10 -34 6 0 10 -11 10 -25 0 -14 -4 -25 -10 -25 -6 0 -10 -43 -10 -109 0 -108
0 -110 -30 -139 -16 -17 -30 -34 -30 -38 0 -16 -100 -104 -126 -110 -18 -5
-70 -49 -132 -111 -62 -61 -112 -103 -123 -103 -11 0 -17 -4 -14 -10 3 -5 -3
-10 -14 -10 -25 0 -51 -26 -51 -52 0 -17 4 -19 27 -13 15 3 31 12 35 18 5 8
37 11 97 10 67 -2 94 1 104 12 8 8 26 17 41 21 14 3 26 10 26 14 0 8 39 23 53
21 5 -1 6 2 3 7 -7 12 60 39 113 45 24 3 47 10 50 15 3 5 34 11 69 14 35 2 67
9 70 15 4 6 20 15 35 18 15 4 27 11 27 15 0 4 40 10 88 12 68 2 93 7 106 20
10 10 23 18 30 18 6 0 31 18 53 40 23 21 53 42 67 46 14 3 26 10 26 14 0 5 14
11 30 15 17 4 30 10 30 15 0 5 14 11 30 15 17 4 30 10 30 15 0 4 12 11 26 14
24 6 94 72 94 88 0 4 16 22 35 41 19 19 35 37 35 42 0 4 25 32 55 61 30 30 55
58 55 63 0 5 14 23 30 39 17 17 30 34 30 37 0 4 20 27 44 52 47 47 48 58 9
100 -13 15 -53 18 -53 4 0 -5 -11 -12 -25 -15 -14 -4 -25 -11 -25 -16 0 -6 -9
-10 -20 -10 -10 0 -47 -27 -80 -60 -83 -82 -90 -80 -90 24 0 88 4 96 51 96 10
0 19 5 19 10 0 6 8 10 18 10 11 0 29 8 40 19 20 16 22 28 22 115 0 62 -4 95
-10 91 -5 -3 -10 0 -10 8 0 19 -49 45 -58 30 -4 -5 -17 -13 -30 -17 -12 -4
-20 -12 -17 -17 4 -5 -10 -9 -29 -9 -38 0 -86 34 -63 44 9 3 9 5 0 5 -8 1 -13
14 -13 32 0 17 -6 37 -14 45 -17 16 -46 19 -46 4 0 -20 -32 -9 -62 20 -35 35
-66 38 -99 9 -18 -16 -32 -19 -59 -15 -19 3 -36 10 -38 16 -2 5 -10 10 -17 10
-7 0 -33 20 -58 44 -24 25 -57 48 -73 52 -16 4 -32 12 -36 18 -6 8 -8 8 -8 0z"/>
<path d="M6803 1904 c-18 -19 -33 -43 -33 -53 0 -33 -11 -51 -32 -51 -10 0
-16 5 -13 10 3 6 -1 10 -9 10 -9 0 -16 5 -16 10 0 6 -10 20 -21 31 -28 28 -39
12 -39 -53 0 -27 -4 -48 -10 -48 -5 0 -10 -7 -10 -15 0 -8 -9 -23 -20 -32 -11
-10 -20 -23 -20 -29 0 -7 -5 -14 -11 -16 -6 -2 -14 -27 -16 -54 -5 -47 -3 -52
18 -57 13 -4 47 -7 75 -7 40 0 53 -4 59 -17 3 -10 6 -20 5 -22 -1 -2 4 -7 11
-11 9 -6 4 -20 -19 -51 -18 -24 -32 -48 -32 -55 0 -7 -5 -14 -11 -16 -5 -2
-13 -22 -16 -46 -3 -23 -10 -42 -14 -42 -5 0 -9 -13 -9 -30 0 -23 5 -31 25
-36 25 -6 55 13 55 36 0 16 74 90 89 90 6 0 11 4 11 10 0 5 11 12 25 16 29 7
39 33 36 92 -1 24 3 42 9 42 5 0 10 8 10 18 0 18 32 52 49 52 11 0 18 36 13
67 -3 15 -14 24 -33 28 -16 4 -29 11 -29 16 0 5 -7 9 -15 9 -9 0 -15 10 -15
26 0 14 -4 23 -10 19 -5 -3 -10 -1 -10 4 0 6 4 11 10 11 5 0 12 16 16 35 3 19
10 35 15 35 5 0 9 21 9 46 0 27 -4 43 -10 39 -5 -3 -10 1 -10 9 0 25 -22 17
-57 -20z"/>
<path d="M4258 1824 c-10 -3 -18 -10 -18 -15 0 -5 -5 -9 -11 -9 -7 0 -27 -16
-46 -35 -19 -19 -40 -35 -48 -35 -8 0 -15 -4 -15 -9 0 -6 -20 -13 -45 -17 -25
-3 -45 -10 -45 -13 0 -10 -104 -81 -118 -81 -7 0 -12 -4 -12 -10 0 -5 -6 -10
-14 -10 -8 0 -27 -13 -43 -29 -16 -15 -39 -32 -52 -36 -31 -10 -71 -53 -71
-76 0 -11 -4 -19 -9 -19 -5 0 -11 -18 -15 -41 -4 -23 -12 -46 -19 -52 -16 -15
-101 -57 -116 -57 -6 0 -11 -4 -11 -10 0 -5 -6 -10 -14 -10 -14 0 -26 -42 -26
-91 0 -16 -4 -29 -10 -29 -5 0 -10 -13 -10 -30 0 -16 5 -30 10 -30 6 0 10 -25
10 -55 0 -62 -22 -95 -64 -95 -24 0 -116 -80 -116 -101 0 -6 -11 -20 -25 -33
-14 -13 -25 -30 -25 -38 0 -9 -23 -39 -51 -68 l-50 -52 7 -67 c10 -103 10
-103 -194 -95 -92 4 -171 10 -176 15 -14 13 -86 11 -86 -2 0 -6 9 -13 20 -16
11 -3 20 -9 20 -13 0 -4 12 -11 26 -14 15 -4 33 -14 41 -21 8 -8 23 -15 34
-15 10 0 19 -4 19 -10 0 -5 16 -12 35 -16 19 -3 39 -12 46 -20 6 -8 27 -14 46
-14 19 0 32 -4 29 -9 -4 -5 7 -12 24 -16 16 -4 30 -11 30 -16 0 -16 20 -10 48
16 29 27 102 36 102 13 0 -6 3 -9 6 -6 3 4 15 -3 26 -14 19 -19 19 -19 43 6
24 25 75 36 75 16 0 -5 7 -10 15 -10 8 0 15 -5 15 -10 0 -6 11 -15 25 -20 14
-5 25 -14 25 -19 0 -16 66 -51 96 -51 36 0 49 9 58 38 6 16 15 22 37 22 16 0
29 -4 29 -9 0 -5 14 -12 30 -16 17 -4 28 -10 25 -15 -3 -4 11 -11 29 -14 19
-4 36 -12 39 -19 5 -15 105 -16 115 -1 4 6 28 13 54 16 33 4 54 13 70 31 13
14 37 29 53 33 31 8 95 63 95 83 0 6 4 11 10 11 5 0 12 11 16 25 3 13 13 27
23 30 9 2 36 25 61 50 25 24 51 44 58 45 6 0 12 5 12 10 0 6 15 10 33 10 56 0
75 10 82 41 4 16 11 29 16 29 5 0 9 7 9 15 0 25 110 21 140 -5 56 -48 151 -7
165 73 4 20 11 37 15 37 5 0 11 13 15 30 4 16 11 30 16 30 5 0 9 6 9 13 0 8 9
24 20 37 11 13 20 31 20 42 0 10 5 18 10 18 6 0 10 9 10 19 0 11 7 26 15 35 8
8 15 18 15 22 0 7 48 54 55 54 12 0 45 36 45 48 0 7 4 11 9 8 5 -3 12 6 15 19
4 14 11 23 16 20 5 -3 12 11 16 31 8 43 -2 135 -15 143 -5 3 -12 29 -16 56 -4
28 -14 59 -21 70 -8 11 -14 27 -14 36 0 10 -4 19 -10 21 -5 2 -13 32 -16 68
-5 46 -13 71 -27 85 -14 13 -22 15 -25 7 -5 -15 -102 -16 -102 -1 0 5 -4 7
-10 4 -5 -3 -10 -2 -10 3 0 20 -50 62 -75 62 -14 0 -25 -4 -25 -10 0 -5 -18
-13 -40 -16 -22 -4 -40 -10 -40 -15 0 -5 -18 -9 -40 -9 -29 0 -47 7 -69 28
-53 48 -60 52 -93 52 -31 0 -95 40 -83 52 6 5 1 6 -75 12 -30 3 -63 2 -72 0z"/>
<path d="M4780 278 c0 -4 -11 -8 -23 -8 -13 0 -34 -9 -47 -20 -13 -11 -29 -20
-36 -20 -41 0 -76 -79 -36 -81 35 -2 63 3 90 17 15 7 33 14 40 14 6 0 12 4 12
9 0 5 18 11 40 15 22 3 40 10 40 15 0 5 14 12 30 16 33 7 37 19 15 41 -8 9
-15 11 -15 7 0 -5 -21 -10 -46 -12 -25 -1 -43 2 -40 7 3 5 -1 9 -9 9 -8 0 -15
-4 -15 -9z"/>
</g>
</svg>
