<svg width="512" height="512" xmlns="http://www.w3.org/2000/svg">

 <g>
  <title>background</title>
  <rect fill="none" id="canvas_background" height="602" width="802" y="-1" x="-1"/>
 </g>
 <g>
  <title>Layer 1</title>
  <path fill="white" id="svg_1" d="m256,512c-141.16406,0 -256,-114.83594 -256,-256s114.83594,-256 256,-256s256,114.83594 256,256s-114.83594,256 -256,256zm0,-480c-123.51953,0 -224,100.48047 -224,224s100.48047,224 224,224s224,-100.48047 224,-224s-100.48047,-224 -224,-224zm0,0"/>
  <path fill="white" id="svg_2" d="m368,394.66797c-4.09766,0 -8.19141,-1.55859 -11.30859,-4.69531l-112,-112c-3.00782,-3.00782 -4.69141,-7.08203 -4.69141,-11.30469l0,-149.33594c0,-8.83203 7.16797,-16 16,-16s16,7.16797 16,16l0,142.69922l107.30859,107.30859c6.25,6.25 6.25,16.38282 0,22.63282c-3.11718,3.13672 -7.21093,4.69531 -11.30859,4.69531zm0,0"/>
 </g>
</svg>